<?xml version="1.0" encoding="UTF-8" standalone="no"?>
<!DOCTYPE svg PUBLIC "-//W3C//DTD SVG 1.1//EN" "http://www.w3.org/Graphics/SVG/1.1/DTD/svg11.dtd">
<svg width="100%" height="100%" viewBox="0 0 64 64" version="1.1" xmlns="http://www.w3.org/2000/svg" xmlns:xlink="http://www.w3.org/1999/xlink" xml:space="preserve" xmlns:serif="http://www.serif.com/" style="fill-rule:evenodd;clip-rule:evenodd;stroke-linejoin:round;stroke-miterlimit:2;">
    <g transform="matrix(1,0,0,1,-480,0)">
        <g id="download" transform="matrix(1,0,0,1,480,0)">
            <rect x="0" y="0" width="64" height="64" style="fill:none;"/>
            <g transform="matrix(1,0,0,1,-480,0)">
                <path d="M495.043,31.833L510.581,47.372C511.362,48.153 512.629,48.153 513.41,47.372L528.957,31.824C529.738,31.043 529.738,29.776 528.957,28.996C528.177,28.215 526.909,28.215 526.129,28.996L511.996,43.129C511.996,43.129 497.871,29.004 497.871,29.004C497.091,28.224 495.823,28.224 495.043,29.004C494.262,29.785 494.262,31.052 495.043,31.833Z" style="fill:rgb(85,95,204);"/>
            </g>
            <g transform="matrix(1,0,0,1,-480,0)">
                <path d="M513.996,45.958L514.004,12.043C514.005,10.939 513.109,10.043 512.005,10.043C510.901,10.042 510.005,10.938 510.004,12.042L509.996,45.957C509.995,47.061 510.891,47.957 511.995,47.957C513.099,47.958 513.995,47.062 513.996,45.958Z" style="fill:rgb(85,95,204);"/>
            </g>
            <g transform="matrix(1.5441,0,0,1,-758.577,-3)">
                <path d="M495.162,50.957L495.162,59C495.162,60.105 495.742,61 496.457,61L527.543,61C528.258,61 528.838,60.105 528.838,59L528.838,50.957C528.838,49.853 528.258,48.957 527.543,48.957C526.828,48.957 526.248,49.853 526.248,50.957L526.248,57C526.248,57 497.752,57 497.752,57C497.752,57 497.752,50.957 497.752,50.957C497.752,49.853 497.172,48.957 496.457,48.957C495.742,48.957 495.162,49.853 495.162,50.957Z" style="fill:rgb(85,95,204);"/>
            </g>
        </g>
    </g>
</svg>
