<?xml version="1.0" encoding="UTF-8" standalone="no"?>
<!DOCTYPE svg PUBLIC "-//W3C//DTD SVG 1.1//EN" "http://www.w3.org/Graphics/SVG/1.1/DTD/svg11.dtd">
<svg width="100%" height="100%" viewBox="0 0 187 52" version="1.1" xmlns="http://www.w3.org/2000/svg" xmlns:xlink="http://www.w3.org/1999/xlink" xml:space="preserve" xmlns:serif="http://www.serif.com/" style="fill-rule:evenodd;clip-rule:evenodd;stroke-linejoin:round;stroke-miterlimit:2;">
    <g transform="matrix(1,0,0,1,-1527.6,-107.697)">
        <g transform="matrix(1,0,0,1,-44.3997,9.69688)">
            <path d="M1590,131.002C1590,131.002 1590,131.002 1590,131.002L1590,122C1590,118.689 1587.31,116 1584,116C1580.69,116 1578,118.689 1578,122L1578,131.002L1578,131.002C1578,132.657 1576.65,134 1575,134C1573.34,134 1572,132.657 1572,131.002L1572,122C1572,115.377 1577.38,110 1584,110C1587.58,110 1590.8,111.573 1593,114.066C1595.2,111.573 1598.42,110 1602,110C1608.62,110 1614,115.377 1614,122L1614,123.451C1614,123.467 1614,123.483 1614,123.499L1614,131.002C1614,132.657 1612.66,134 1611,134C1609.35,134 1608.01,132.657 1608.01,131.002C1608.01,131.002 1608,131.002 1608,131.002L1608,122C1608,118.689 1605.31,116 1602,116C1598.69,116 1596,118.689 1596,122L1596,131.002C1596,132.657 1594.65,134 1593,134C1591.35,134 1590,132.657 1590,131.002Z" style="fill:rgb(85,95,204);"/>
        </g>
        <g transform="matrix(1,0,0,1,-49.7568,9.69688)">
            <path d="M1635.36,110C1641.98,110 1647.36,115.377 1647.36,122C1647.36,128.623 1641.98,134 1635.36,134C1628.73,134 1623.36,128.623 1623.36,122C1623.36,115.377 1628.73,110 1635.36,110ZM1635.36,116C1638.67,116 1641.36,118.689 1641.36,122C1641.36,125.311 1638.67,128 1635.36,128C1632.05,128 1629.36,125.311 1629.36,122C1629.36,118.689 1632.05,116 1635.36,116Z" style="fill:rgb(85,95,204);"/>
        </g>
        <g transform="matrix(1,0,0,1,-21.7568,9.69688)">
            <path d="M1635.36,110C1641.98,110 1647.36,115.377 1647.36,122C1647.36,128.623 1641.98,134 1635.36,134C1628.73,134 1623.36,128.623 1623.36,122C1623.36,115.377 1628.73,110 1635.36,110ZM1635.36,116C1638.67,116 1641.36,118.689 1641.36,122C1641.36,125.311 1638.67,128 1635.36,128C1632.05,128 1629.36,125.311 1629.36,122C1629.36,118.689 1632.05,116 1635.36,116Z" style="fill:rgb(85,95,204);"/>
        </g>
        <g transform="matrix(1,0,0,0.833333,-42.3997,32.0302)">
            <path d="M1708,113.597C1708,111.612 1706.65,110 1705,110C1703.34,110 1702,111.612 1702,113.597L1702,130.403C1702,132.388 1703.34,134 1705,134C1706.65,134 1708,132.388 1708,130.403L1708,113.597Z" style="fill:rgb(85,95,204);"/>
        </g>
        <g transform="matrix(1,0,0,1,-72.4046,9.69688)">
            <path d="M1744.01,131.002L1744.01,110C1744.01,103.377 1749.38,98 1756.01,98C1757.66,98 1759,99.343 1759,100.998C1759,102.652 1757.66,103.995 1756.01,103.995L1756.01,104C1752.69,104 1750.01,106.689 1750.01,110L1750,110L1750,114L1753.01,114C1754.66,114 1756.01,115.343 1756.01,116.998C1756.01,118.652 1754.66,119.995 1753.01,119.995L1750,119.995L1750,131.002C1750,132.657 1748.66,134 1747,134C1745.35,134 1744.01,132.657 1744.01,131.002Z" style="fill:rgb(85,95,204);"/>
        </g>
        <g transform="matrix(1,0,0,1,-44.3997,9.69688)">
            <path d="M1734.12,122L1734.12,116.998C1734.12,115.343 1735.46,114 1737.11,114C1738.77,114 1740.11,115.343 1740.11,116.998L1740.12,122L1740.12,122.039C1740.14,125.332 1742.82,128 1746.12,128C1749.43,128 1752.12,125.311 1752.12,122L1752.12,122L1752.12,116.998C1752.12,115.343 1753.46,114 1755.12,114C1756.77,114 1758.12,115.343 1758.12,116.998L1758.12,138C1758.12,144.623 1752.74,150 1746.12,150C1744.46,150 1743.12,148.657 1743.12,147.002C1743.12,145.348 1744.46,144.005 1746.12,144.005L1746.12,144C1749.43,144 1752.12,141.311 1752.12,138L1752.12,138L1752.12,132.39C1750.35,133.414 1748.3,134 1746.12,134C1739.49,134 1734.12,128.623 1734.12,122Z" style="fill:rgb(85,95,204);"/>
        </g>
        <g transform="matrix(1,0,0,1,-44.3997,9.69688)">
            <path d="M1692.01,100.978C1692.02,99.333 1693.36,98 1695,98C1696.66,98 1698,99.343 1698,100.998L1698.01,100.998L1698,122C1698,128.623 1692.62,134 1686,134C1679.38,134 1674,128.623 1674,122C1674,115.377 1679.38,110 1686,110C1688.18,110 1690.23,110.585 1692,111.608L1692.01,100.998L1692.01,100.978ZM1686,116C1689.31,116 1692,118.689 1692,122C1692,125.311 1689.31,128 1686,128C1682.69,128 1680,125.311 1680,122C1680,118.689 1682.69,116 1686,116Z" style="fill:rgb(85,95,204);"/>
        </g>
    </g>
</svg>
